<svg width="200" height="50" viewBox="0 0 200 50" fill="none" xmlns="http://www.w3.org/2000/svg">
<path d="M192.233 38.875C191.423 39.385 190.538 39.685 189.578 39.775C188.648 39.865 187.763 39.745 186.923 39.415C186.083 39.055 185.408 38.515 184.898 37.795C184.508 37.315 184.193 36.655 183.953 35.815C183.743 34.945 183.713 33.79 183.863 32.35C184.013 31.06 184.418 29.755 185.078 28.435C185.768 27.085 186.593 25.9 187.553 24.88C188.543 23.83 189.578 23.11 190.658 22.72C191.108 22.54 191.528 22.435 191.918 22.405C192.308 22.345 192.848 22.345 193.538 22.405C194.228 22.495 194.813 22.66 195.293 22.9C195.773 23.11 196.133 23.365 196.373 23.665C196.823 24.145 197.123 24.61 197.273 25.06C197.423 25.48 197.498 25.9 197.498 26.32C197.348 27.19 196.913 28.15 196.193 29.2C195.473 30.25 194.483 31.06 193.223 31.63C192.653 31.84 192.008 31.96 191.288 31.99C190.568 32.02 189.728 31.9 188.768 31.63C188.108 31.45 187.673 31.51 187.463 31.81C187.253 32.11 187.133 32.755 187.103 33.745C187.103 34.465 187.208 35.05 187.418 35.5C187.658 35.95 188.048 36.235 188.588 36.355C189.248 36.475 189.728 36.52 190.028 36.49C190.358 36.43 190.748 36.28 191.198 36.04C191.528 35.83 191.783 35.665 191.963 35.545C192.173 35.395 192.353 35.245 192.503 35.095C192.683 34.945 192.878 34.795 193.088 34.645C193.268 34.495 193.418 34.39 193.538 34.33C193.688 34.27 193.838 34.24 193.988 34.24C194.258 34.27 194.513 34.42 194.753 34.69C194.993 34.96 195.158 35.2 195.248 35.41C195.368 35.56 195.293 35.845 195.023 36.265C194.783 36.685 194.408 37.135 193.898 37.615C193.418 38.065 192.863 38.485 192.233 38.875ZM191.828 29.02C192.098 28.9 192.428 28.69 192.818 28.39C193.208 28.06 193.553 27.715 193.853 27.355C194.153 26.995 194.303 26.695 194.303 26.455C194.303 26.095 194.093 25.795 193.673 25.555C193.253 25.285 192.683 25.24 191.963 25.42C191.693 25.48 191.378 25.66 191.018 25.96C190.658 26.26 190.298 26.605 189.938 26.995C189.608 27.355 189.323 27.7 189.083 28.03C188.843 28.33 188.708 28.555 188.678 28.705C188.798 28.855 189.038 28.975 189.398 29.065C189.788 29.125 190.208 29.155 190.658 29.155C191.138 29.155 191.528 29.11 191.828 29.02Z" fill="black"/>
<path d="M179.075 38.65C178.895 38.59 178.595 38.41 178.175 38.11C177.785 37.81 177.44 37.345 177.14 36.715C176.84 36.085 176.705 35.245 176.735 34.195C176.765 33.295 176.81 32.635 176.87 32.215C176.96 31.795 176.885 31.57 176.645 31.54C176.465 31.51 176.105 31.675 175.565 32.035C175.055 32.395 174.41 32.935 173.63 33.655C172.88 34.345 172.01 35.2 171.02 36.22C170.69 36.55 170.33 36.91 169.94 37.3C169.55 37.66 169.16 37.93 168.77 38.11C168.41 38.26 168.065 38.2 167.735 37.93L167.24 37.525C167.06 37.345 166.91 37.135 166.79 36.895C166.7 36.625 166.685 36.385 166.745 36.175L167.915 32.845C168.305 31.975 168.575 31.345 168.725 30.955C168.875 30.535 168.95 30.28 168.95 30.19C168.95 30.07 168.875 30.025 168.725 30.055C168.545 30.085 168.26 30.235 167.87 30.505C167.48 30.775 167.225 31.015 167.105 31.225C166.985 31.225 166.82 31.345 166.61 31.585C166.4 31.825 166.175 32.05 165.935 32.26C165.755 32.5 165.41 32.89 164.9 33.43C164.39 33.94 163.865 34.465 163.325 35.005C162.935 35.365 162.5 35.83 162.02 36.4C161.57 36.94 161.165 37.435 160.805 37.885C160.475 38.335 160.265 38.56 160.175 38.56C159.695 38.53 159.245 38.38 158.825 38.11C158.435 37.81 158.165 37.42 158.015 36.94C157.835 36.55 157.835 35.905 158.015 35.005C158.195 34.105 158.465 32.755 158.825 30.955C158.945 30.505 159.05 30.145 159.14 29.875C159.23 29.575 159.32 29.275 159.41 28.975C159.53 28.675 159.665 28.315 159.815 27.895C159.995 27.445 160.25 26.86 160.58 26.14C160.76 25.66 160.835 25.255 160.805 24.925C160.805 24.565 160.805 24.295 160.805 24.115C160.805 23.695 160.925 23.365 161.165 23.125C161.405 22.885 161.675 22.72 161.975 22.63C162.305 22.51 162.575 22.48 162.785 22.54C163.475 22.63 163.955 22.885 164.225 23.305C164.525 23.725 164.69 24.175 164.72 24.655C164.75 25.075 164.69 25.465 164.54 25.825C164.42 26.155 164.315 26.44 164.225 26.68L163.73 27.895C163.49 28.465 163.28 28.96 163.1 29.38C162.92 29.8 162.8 30.13 162.74 30.37C162.68 30.61 162.65 30.775 162.65 30.865C162.68 30.955 162.8 30.925 163.01 30.775C163.22 30.595 163.49 30.355 163.82 30.055C164.15 29.755 164.465 29.485 164.765 29.245C165.335 28.765 165.95 28.285 166.61 27.805C167.3 27.295 167.96 26.86 168.59 26.5C169.25 26.11 169.775 25.855 170.165 25.735C170.675 25.795 171.095 26.005 171.425 26.365C171.785 26.695 172.085 27.04 172.325 27.4C172.505 27.76 172.565 28.12 172.505 28.48C172.445 28.81 172.385 29.125 172.325 29.425C172.295 29.545 172.22 29.8 172.1 30.19C172.01 30.55 171.905 30.895 171.785 31.225C171.695 31.555 171.65 31.72 171.65 31.72C171.65 31.72 171.755 31.615 171.965 31.405C172.205 31.195 172.49 30.955 172.82 30.685C173.18 30.385 173.495 30.13 173.765 29.92C175.145 28.87 176.27 28.195 177.14 27.895C178.04 27.595 178.79 27.88 179.39 28.75C179.75 29.08 179.96 29.5 180.02 30.01C180.11 30.52 180.155 31.255 180.155 32.215C180.185 32.605 180.215 33.055 180.245 33.565C180.305 34.045 180.365 34.48 180.425 34.87C180.485 35.26 180.545 35.5 180.605 35.59C180.695 35.71 180.86 35.815 181.1 35.905C181.34 35.995 181.61 36.07 181.91 36.13C182.33 36.28 182.57 36.595 182.63 37.075C182.69 37.555 182.48 37.945 182 38.245C181.55 38.515 181.07 38.665 180.56 38.695C180.05 38.725 179.555 38.71 179.075 38.65Z" fill="black"/>
<path d="M152.064 37.66C151.434 37.87 150.909 37.975 150.489 37.975C150.099 37.945 149.664 37.765 149.184 37.435C148.614 36.835 148.419 36.235 148.599 35.635C148.809 35.035 149.334 34.45 150.174 33.88C150.744 33.52 151.164 33.34 151.434 33.34C151.704 33.31 152.124 33.415 152.694 33.655C153.684 34.255 154.119 34.93 153.999 35.68C153.879 36.43 153.234 37.09 152.064 37.66Z" fill="black"/>
<path d="M136.329 40.225C135.459 39.865 134.784 39.475 134.304 39.055C133.824 38.605 133.584 38.215 133.584 37.885C133.614 37.675 133.689 37.51 133.809 37.39C133.959 37.24 134.274 37.18 134.754 37.21C135.264 37.21 136.059 37.315 137.139 37.525C137.469 37.525 137.829 37.51 138.219 37.48C138.639 37.42 139.014 37.36 139.344 37.3C139.704 37.21 139.944 37.105 140.064 36.985C140.214 36.955 140.259 36.895 140.199 36.805C140.139 36.685 140.034 36.565 139.884 36.445C139.764 36.325 139.629 36.235 139.479 36.175C139.329 36.115 139.194 36.085 139.074 36.085C139.044 35.935 138.909 35.785 138.669 35.635C138.459 35.455 138.204 35.29 137.904 35.14C137.244 34.6 136.659 34.12 136.149 33.7C135.639 33.25 135.444 32.935 135.564 32.755C135.564 32.635 135.564 32.575 135.564 32.575C135.564 32.545 135.564 32.53 135.564 32.53C135.354 32.53 135.144 32.245 134.934 31.675C134.724 31.075 134.619 30.535 134.619 30.055C134.619 29.515 134.739 28.96 134.979 28.39C135.219 27.79 135.534 27.22 135.924 26.68C136.314 26.11 136.719 25.615 137.139 25.195C137.679 24.685 138.294 24.16 138.984 23.62C139.704 23.05 140.454 22.555 141.234 22.135C142.014 21.685 142.794 21.355 143.574 21.145C144.054 21.025 144.549 20.965 145.059 20.965C145.569 20.965 145.959 21.055 146.229 21.235C146.499 21.175 146.799 21.265 147.129 21.505C147.459 21.745 147.774 22.045 148.074 22.405C148.374 22.765 148.599 23.11 148.749 23.44C148.749 23.8 148.734 24.235 148.704 24.745C148.674 25.225 148.614 25.66 148.524 26.05C148.464 26.41 148.329 26.59 148.119 26.59C148.119 26.59 148.074 26.605 147.984 26.635C147.924 26.635 147.894 26.71 147.894 26.86C147.894 27.16 147.669 27.505 147.219 27.895C146.649 28.285 146.124 28.57 145.644 28.75C145.164 28.93 144.819 28.885 144.609 28.615C144.459 28.495 144.324 28.39 144.204 28.3C144.084 28.18 143.964 28.06 143.844 27.94C143.844 27.94 143.799 27.88 143.709 27.76C143.649 27.64 143.619 27.505 143.619 27.355C143.619 27.235 143.664 27.13 143.754 27.04C143.844 26.92 143.889 26.86 143.889 26.86C144.219 26.59 144.489 26.29 144.699 25.96C144.939 25.63 145.119 25.315 145.239 25.015C145.389 24.685 145.464 24.445 145.464 24.295C145.464 24.115 145.419 24.01 145.329 23.98C145.269 23.95 145.119 23.935 144.879 23.935C144.639 23.995 144.249 24.16 143.709 24.43C143.199 24.67 142.674 24.955 142.134 25.285C141.594 25.615 141.189 25.9 140.919 26.14C140.799 26.35 140.709 26.485 140.649 26.545C140.619 26.605 140.544 26.635 140.424 26.635C140.424 26.515 140.334 26.545 140.154 26.725C140.004 26.905 139.809 27.145 139.569 27.445C139.359 27.745 139.134 28.06 138.894 28.39C138.684 28.72 138.519 28.975 138.399 29.155C138.339 29.365 138.264 29.59 138.174 29.83C138.084 30.07 138.054 30.31 138.084 30.55C138.054 30.88 138.144 31.165 138.354 31.405C138.594 31.615 138.969 31.93 139.479 32.35C140.529 33.13 141.324 33.76 141.864 34.24C142.434 34.69 142.839 35.065 143.079 35.365C143.319 35.635 143.469 35.905 143.529 36.175C144.039 37.105 144.129 37.885 143.799 38.515C143.469 39.115 142.899 39.595 142.089 39.955C141.789 40.105 141.279 40.24 140.559 40.36C139.839 40.48 139.074 40.525 138.264 40.495C137.484 40.495 136.839 40.405 136.329 40.225Z" fill="black"/>
<path d="M126.905 40.315C126.575 40.435 126.245 40.495 125.915 40.495C125.615 40.495 125.21 40.3 124.7 39.91C124.43 39.55 124.25 39.205 124.16 38.875C124.07 38.545 124.025 38.005 124.025 37.255C124.085 36.805 124.205 36.16 124.385 35.32C124.565 34.45 124.775 33.55 125.015 32.62C125.285 31.69 125.51 30.85 125.69 30.1C125.9 29.32 126.065 28.795 126.185 28.525C126.395 27.805 126.44 27.355 126.32 27.175C126.2 26.995 125.84 26.89 125.24 26.86C124.37 26.8 123.53 27.16 122.72 27.94C121.91 28.69 121.025 29.815 120.065 31.315C119.345 32.425 118.91 33.355 118.76 34.105C118.61 34.825 118.595 35.32 118.715 35.59C118.775 35.77 118.91 35.875 119.12 35.905C119.36 35.905 119.63 35.845 119.93 35.725C120.23 35.605 120.53 35.47 120.83 35.32C121.04 35.2 121.295 35.08 121.595 34.96C121.925 34.81 122.24 34.675 122.54 34.555C122.72 34.555 122.84 34.645 122.9 34.825C122.99 35.005 123.035 35.245 123.035 35.545C123.035 35.665 123.065 35.86 123.125 36.13C123.215 36.37 123.35 36.535 123.53 36.625C123.65 36.745 123.425 37 122.855 37.39C122.315 37.78 121.565 38.245 120.605 38.785C119.705 38.995 119.015 39.1 118.535 39.1C118.055 39.1 117.56 38.905 117.05 38.515C116.21 38.005 115.7 37.105 115.52 35.815C115.34 34.495 115.535 32.995 116.105 31.315C116.675 29.965 117.305 28.825 117.995 27.895C118.685 26.965 119.42 26.095 120.2 25.285C120.32 25.165 120.665 24.94 121.235 24.61C121.805 24.28 122.42 24.01 123.08 23.8C123.83 23.56 124.49 23.455 125.06 23.485C125.63 23.485 126.155 23.65 126.635 23.98C127.175 24.1 127.535 24.085 127.715 23.935C127.895 23.755 128.135 23.29 128.435 22.54C129.005 21.04 129.575 19.525 130.145 17.995C130.745 16.435 131.375 14.86 132.035 13.27C132.335 12.7 132.515 12.265 132.575 11.965C132.665 11.635 132.77 11.41 132.89 11.29L134.015 11.02C134.285 10.96 134.615 11.095 135.005 11.425C135.395 11.755 135.65 12.1 135.77 12.46C135.77 12.73 135.65 13.33 135.41 14.26C135.17 15.16 134.78 16.24 134.24 17.5C133.76 18.61 133.28 19.735 132.8 20.875C132.35 21.985 131.915 23.17 131.495 24.43C131.165 25.36 130.865 26.11 130.595 26.68C130.325 27.25 130.145 27.745 130.055 28.165C129.875 28.945 129.65 29.65 129.38 30.28C129.14 30.88 128.975 31.3 128.885 31.54C128.495 32.68 128.18 33.61 127.94 34.33C127.73 35.05 127.58 35.665 127.49 36.175C127.43 36.685 127.4 37.18 127.4 37.66C127.43 38.14 127.49 38.695 127.58 39.325C127.58 39.445 127.52 39.61 127.4 39.82C127.28 40 127.115 40.165 126.905 40.315Z" fill="black"/>
<path d="M102.949 38.92C102.859 38.95 102.679 38.935 102.409 38.875C102.139 38.815 101.869 38.74 101.599 38.65C101.359 38.56 101.209 38.485 101.149 38.425C101.029 38.305 100.879 38.095 100.699 37.795C100.519 37.495 100.444 37.09 100.474 36.58C100.504 36.07 100.774 35.44 101.284 34.69C101.434 34.39 101.614 33.94 101.824 33.34C102.034 32.74 102.244 32.11 102.454 31.45C102.694 30.76 102.904 30.145 103.084 29.605C103.294 29.065 103.444 28.69 103.534 28.48C103.594 27.97 103.564 27.61 103.444 27.4C103.354 27.16 103.099 27.025 102.679 26.995C102.379 26.995 102.139 26.92 101.959 26.77C101.809 26.59 101.734 26.23 101.734 25.69C101.794 25.27 101.899 24.94 102.049 24.7C102.229 24.43 102.469 24.19 102.769 23.98C103.069 23.83 103.414 23.725 103.804 23.665C104.224 23.605 104.629 23.59 105.019 23.62C105.439 23.65 105.739 23.755 105.919 23.935C106.129 24.055 106.279 24.325 106.369 24.745C106.489 25.135 106.579 25.54 106.639 25.96C106.729 26.38 106.789 26.695 106.819 26.905C107.119 26.665 107.479 26.335 107.899 25.915C108.319 25.465 108.724 25.045 109.114 24.655C109.594 24.325 110.164 23.995 110.824 23.665C111.484 23.305 111.964 23.125 112.264 23.125C112.594 23.125 112.969 23.26 113.389 23.53C113.839 23.77 114.124 24.01 114.244 24.25C114.544 24.76 114.724 25.27 114.784 25.78C114.874 26.29 114.754 26.755 114.424 27.175C114.124 27.565 113.719 27.91 113.209 28.21C112.729 28.51 112.189 28.6 111.589 28.48C111.409 28.45 111.214 28.27 111.004 27.94C110.794 27.58 110.674 27.31 110.644 27.13C110.644 27.04 110.494 27.13 110.194 27.4C109.894 27.64 109.549 27.94 109.159 28.3C108.799 28.66 108.469 28.99 108.169 29.29C107.659 29.92 107.119 30.775 106.549 31.855C105.979 32.935 105.304 34.24 104.524 35.77C104.164 36.52 103.879 37.21 103.669 37.84C103.459 38.47 103.219 38.83 102.949 38.92Z" fill="black"/>
<path d="M93.798 39.505C93.168 39.475 92.628 39.115 92.178 38.425C91.728 37.705 91.443 36.91 91.323 36.04C91.353 35.8 91.383 35.455 91.413 35.005C91.473 34.555 91.533 34.09 91.593 33.61C91.713 33.04 91.878 32.32 92.088 31.45C92.328 30.58 92.553 29.695 92.763 28.795C93.003 27.895 93.213 27.13 93.393 26.5C93.573 25.84 93.678 25.45 93.708 25.33C93.888 24.97 94.233 24.88 94.743 25.06C95.283 25.24 95.748 25.6 96.138 26.14C96.318 26.38 96.423 26.665 96.453 26.995C96.513 27.325 96.468 27.805 96.318 28.435C96.198 29.065 95.958 29.995 95.598 31.225C95.268 32.425 95.013 33.4 94.833 34.15C94.683 34.87 94.623 35.635 94.653 36.445C94.533 37.705 94.413 38.545 94.293 38.965C94.203 39.355 94.038 39.535 93.798 39.505ZM98.298 21.055C98.178 21.145 98.058 21.19 97.938 21.19C97.848 21.16 97.683 21.07 97.443 20.92C97.233 20.89 96.963 20.755 96.633 20.515C96.333 20.275 96.063 20.02 95.823 19.75C95.613 19.45 95.508 19.27 95.508 19.21C95.478 18.91 95.493 18.46 95.553 17.86C95.643 17.26 95.808 16.705 96.048 16.195C96.288 15.685 96.633 15.415 97.083 15.385C97.203 15.385 97.413 15.43 97.713 15.52C98.013 15.61 98.388 15.745 98.838 15.925C99.078 16.375 99.303 16.93 99.513 17.59C99.753 18.25 99.813 18.895 99.693 19.525C99.573 20.155 99.108 20.665 98.298 21.055Z" fill="black"/>
<path d="M76.5897 39.55C75.9897 39.49 75.5547 39.37 75.2847 39.19C75.0147 38.98 74.7897 38.68 74.6097 38.29C74.3697 38.02 74.2197 37.81 74.1597 37.66C74.1297 37.51 74.1297 37.375 74.1597 37.255C74.3097 37.255 74.4447 37.255 74.5647 37.255C74.6847 37.225 74.7597 37.165 74.7897 37.075C74.7897 36.985 74.8347 36.925 74.9247 36.895C75.0447 36.865 75.1647 36.865 75.2847 36.895C75.8547 36.925 76.5597 36.73 77.3997 36.31C78.2397 35.89 79.1547 35.305 80.1447 34.555C81.1647 33.805 82.1697 32.98 83.1597 32.08C83.9397 31.06 84.4947 30.295 84.8247 29.785C85.1547 29.275 85.3347 28.87 85.3647 28.57C85.3947 28.27 85.3347 27.985 85.1847 27.715C85.0647 27.475 84.7197 27.37 84.1497 27.4C83.6097 27.4 82.8747 27.7 81.9447 28.3C80.6547 29.11 79.6197 29.86 78.8397 30.55C78.0597 31.24 77.3397 32.02 76.6797 32.89C76.4397 33.19 76.1847 33.52 75.9147 33.88C75.6747 34.24 75.4647 34.555 75.2847 34.825C75.1047 35.095 75.0147 35.23 75.0147 35.23C75.0147 35.35 74.8347 35.5 74.4747 35.68C74.1447 35.86 73.8597 35.95 73.6197 35.95C73.4997 35.89 73.3347 35.785 73.1247 35.635C72.9447 35.455 72.8247 35.23 72.7647 34.96C72.4947 34.78 72.2847 34.615 72.1347 34.465C71.9847 34.315 71.9097 34.09 71.9097 33.79C71.9097 33.58 71.9547 33.295 72.0447 32.935C72.1347 32.545 72.2547 32.02 72.4047 31.36C72.5847 30.58 72.7797 29.77 72.9897 28.93C73.2297 28.09 73.4397 27.37 73.6197 26.77C73.8297 26.14 73.9797 25.795 74.0697 25.735C74.0697 25.735 74.1297 25.6 74.2497 25.33C74.3697 25.06 74.4297 24.745 74.4297 24.385C74.4897 24.025 74.5797 23.71 74.6997 23.44C74.8497 23.17 74.9247 22.975 74.9247 22.855C75.0447 22.765 75.2247 22.405 75.4647 21.775C75.7047 21.145 76.0047 20.32 76.3647 19.3C76.3647 19.21 76.4697 18.925 76.6797 18.445C76.8897 17.935 77.1447 17.35 77.4447 16.69C77.7447 16 78.0447 15.295 78.3447 14.575C78.6747 13.825 78.9447 13.165 79.1547 12.595C79.5147 12.085 79.8147 11.59 80.0547 11.11C80.2947 10.6 80.5197 10.3 80.7297 10.21C80.8797 10.18 81.1047 10.225 81.4047 10.345C81.7347 10.465 82.0647 10.63 82.3947 10.84C82.7547 11.02 83.0097 11.23 83.1597 11.47C83.2497 11.62 83.2947 11.77 83.2947 11.92C83.3247 12.04 83.2647 12.28 83.1147 12.64C82.9947 12.97 82.7547 13.51 82.3947 14.26C82.0347 15.01 81.5247 16.075 80.8647 17.455C80.0247 19.255 79.3497 20.8 78.8397 22.09C78.3597 23.35 77.9697 24.445 77.6697 25.375C77.3697 26.305 77.0697 27.16 76.7697 27.94L76.5447 28.93L77.6697 27.715C78.0297 27.415 78.4047 27.1 78.7947 26.77C79.2147 26.41 79.6197 26.08 80.0097 25.78C80.2497 25.6 80.5647 25.42 80.9547 25.24C81.3747 25.03 81.7797 24.85 82.1697 24.7C82.5597 24.55 82.8447 24.46 83.0247 24.43C83.1147 24.4 83.3847 24.34 83.8347 24.25C84.3147 24.16 84.8097 24.115 85.3197 24.115C85.9797 24.115 86.5347 24.325 86.9847 24.745C87.4647 25.135 87.8997 25.66 88.2897 26.32C88.6197 26.95 88.7397 27.73 88.6497 28.66C88.5897 29.56 88.3497 30.355 87.9297 31.045C87.7797 31.165 87.6297 31.33 87.4797 31.54C87.3297 31.72 87.2547 31.87 87.2547 31.99C87.2247 32.2 86.9547 32.635 86.4447 33.295C85.9347 33.925 85.4247 34.525 84.9147 35.095C84.3747 35.665 83.7147 36.235 82.9347 36.805C82.1547 37.345 81.3747 37.84 80.5947 38.29C79.8447 38.71 79.1997 39.01 78.6597 39.19C78.4197 39.22 78.0747 39.28 77.6247 39.37C77.1747 39.43 76.8297 39.49 76.5897 39.55Z" fill="black"/>
<path d="M60.5549 48.775C60.0149 49.045 59.3399 49.105 58.5299 48.955C57.7499 48.835 56.9699 48.58 56.1899 48.19C55.4399 47.8 54.8099 47.335 54.2999 46.795C54.0599 46.525 53.8199 46.165 53.5799 45.715C53.3699 45.295 53.2199 44.89 53.1299 44.5C53.0699 44.14 53.1299 43.915 53.3099 43.825C53.5499 43.675 53.8199 43.6 54.1199 43.6C54.4499 43.6 54.7349 43.645 54.9749 43.735C55.2449 43.825 55.3799 43.93 55.3799 44.05C55.6499 44.29 55.9649 44.53 56.3249 44.77C56.6849 45.04 57.0149 45.235 57.3149 45.355C57.7949 45.535 58.1999 45.58 58.5299 45.49C58.8599 45.43 59.1599 45.265 59.4299 44.995C59.7599 44.635 60.0299 44.185 60.2399 43.645C60.4799 43.135 60.6899 42.49 60.8699 41.71L61.0049 41.125C61.3049 39.745 61.6049 38.41 61.9049 37.12C62.2049 35.8 62.4599 34.825 62.6699 34.195C62.6999 33.955 62.6699 33.805 62.5799 33.745C62.5199 33.685 62.4149 33.73 62.2649 33.88C62.1149 33.94 61.9349 34.015 61.7249 34.105C61.5449 34.195 61.3649 34.3 61.1849 34.42C60.7949 34.6 60.4349 34.765 60.1049 34.915C59.8049 35.035 59.5349 35.125 59.2949 35.185C58.9349 35.245 58.6649 35.275 58.4849 35.275C58.3049 35.245 58.1699 35.23 58.0799 35.23C57.8099 35.29 57.4049 35.23 56.8649 35.05C56.3549 34.84 55.9049 34.57 55.5149 34.24C55.2449 33.94 55.0499 33.67 54.9299 33.43C54.8099 33.16 54.7349 32.875 54.7049 32.575C54.6749 32.275 54.6599 31.945 54.6599 31.585C54.6599 31.105 54.8999 30.34 55.3799 29.29C55.8599 28.21 56.5349 27.16 57.4049 26.14C57.9749 25.57 58.7099 25 59.6099 24.43C60.5399 23.83 61.4849 23.335 62.4449 22.945C63.4049 22.555 64.1849 22.36 64.7849 22.36C64.9649 22.36 65.1599 22.39 65.3699 22.45C65.5799 22.48 65.7899 22.57 65.9999 22.72C66.4799 22.87 66.9149 23.14 67.3049 23.53C67.6949 23.89 68.0699 24.415 68.4299 25.105C68.6699 25.585 68.8499 26.08 68.9699 26.59C69.1199 27.1 69.1949 27.625 69.1949 28.165C69.1949 28.645 69.1199 29.065 68.9699 29.425C68.8199 29.755 68.6549 29.98 68.4749 30.1C68.4149 30.13 68.3399 30.16 68.2499 30.19C68.1899 30.19 68.0999 30.205 67.9799 30.235C67.8899 30.265 67.7699 30.295 67.6199 30.325C67.4699 30.385 67.3199 30.52 67.1699 30.73C67.0199 30.94 66.8849 31.285 66.7649 31.765C66.7349 31.915 66.6899 32.08 66.6299 32.26C66.5999 32.41 66.5549 32.56 66.4949 32.71C66.4949 32.77 66.4499 32.86 66.3599 32.98C66.2999 33.07 66.2699 33.175 66.2699 33.295C66.2399 33.475 66.1949 33.625 66.1349 33.745C66.0749 33.835 66.0149 33.94 65.9549 34.06C65.8949 34.21 65.8499 34.345 65.8199 34.465C65.8199 34.585 65.8199 34.705 65.8199 34.825L65.6399 35.32C65.5499 35.62 65.4599 35.89 65.3699 36.13C65.3099 36.37 65.2799 36.52 65.2799 36.58L65.0999 37.48C65.0399 37.78 64.9649 38.065 64.8749 38.335C64.8149 38.605 64.7549 38.89 64.6949 39.19C64.6349 39.49 64.5599 39.865 64.4699 40.315C63.8099 42.925 63.1499 44.89 62.4899 46.21C61.8599 47.56 61.2149 48.415 60.5549 48.775ZM57.7649 31.675C58.0649 32.215 58.6949 32.41 59.6549 32.26C60.6449 32.11 61.7549 31.525 62.9849 30.505C63.5549 30.055 64.0499 29.545 64.4699 28.975C64.8899 28.375 65.1899 27.76 65.3699 27.13C65.5199 26.65 65.5499 26.32 65.4599 26.14C65.3999 25.93 65.1749 25.81 64.7849 25.78C64.2149 25.75 63.5849 25.87 62.8949 26.14C62.2349 26.41 61.5449 26.77 60.8249 27.22C60.4949 27.67 60.2099 27.97 59.9699 28.12C59.7299 28.27 59.5499 28.36 59.4299 28.39C59.3399 28.42 59.3249 28.45 59.3849 28.48C59.3549 28.6 59.3099 28.705 59.2499 28.795C59.1899 28.885 59.1149 28.96 59.0249 29.02C58.8149 29.32 58.5899 29.635 58.3499 29.965C58.1399 30.265 57.9749 30.565 57.8549 30.865C57.7649 31.165 57.7349 31.435 57.7649 31.675Z" fill="black"/>
<path d="M48.4925 39.685C48.1025 39.685 47.7125 39.535 47.3225 39.235C46.9325 38.935 46.6025 38.53 46.3325 38.02C46.0925 37.51 45.9725 36.94 45.9725 36.31C45.9725 35.86 46.0625 35.155 46.2425 34.195C46.4225 33.235 46.6775 32.125 47.0075 30.865C47.1275 30.325 47.1875 29.995 47.1875 29.875C47.1875 29.755 47.0675 29.725 46.8275 29.785C46.7075 29.815 46.5875 29.86 46.4675 29.92C46.3475 29.95 46.2275 30.01 46.1075 30.1C45.8975 30.16 45.5975 30.34 45.2075 30.64C44.8475 30.94 44.4425 31.27 43.9925 31.63C43.8125 31.75 43.5875 31.93 43.3175 32.17C43.0475 32.41 42.7775 32.65 42.5075 32.89C42.2375 33.13 42.0125 33.34 41.8325 33.52C41.6225 33.67 41.2925 33.94 40.8425 34.33C40.3925 34.69 39.9275 35.065 39.4475 35.455C38.9675 35.815 38.5325 36.115 38.1424 36.355C37.8724 36.445 37.6325 36.49 37.4225 36.49C37.2125 36.46 37.0925 36.385 37.0625 36.265C37.0325 36.145 36.9125 35.92 36.7025 35.59C36.5225 35.23 36.3725 34.765 36.2525 34.195C36.1325 33.625 36.1625 33.01 36.3425 32.35C36.3725 32.11 36.4775 31.69 36.6575 31.09C36.8375 30.46 37.0625 29.74 37.3325 28.93C37.6325 28.09 37.9625 27.25 38.3225 26.41C38.4125 26.17 38.4875 25.885 38.5475 25.555C38.6075 25.195 38.6675 24.85 38.7275 24.52C38.8175 24.16 38.9375 23.89 39.0875 23.71C39.1775 23.53 39.3125 23.44 39.4925 23.44C39.7025 23.41 39.8975 23.455 40.0775 23.575C40.4075 23.725 40.6625 23.95 40.8425 24.25C41.0525 24.55 41.1725 24.955 41.2025 25.465C41.4725 25.855 41.6075 26.305 41.6075 26.815C41.6075 27.295 41.5474 27.76 41.4274 28.21C41.3075 28.63 41.1875 28.99 41.0675 29.29C40.9475 29.56 40.8875 29.665 40.8875 29.605C41.0075 29.575 41.2025 29.44 41.4725 29.2C41.7725 28.93 42.2075 28.63 42.7775 28.3C43.4375 27.79 43.9625 27.415 44.3525 27.175C44.7725 26.905 45.0875 26.71 45.2975 26.59C45.5375 26.44 45.7325 26.305 45.8825 26.185C46.0025 26.125 46.1225 26.065 46.2425 26.005C46.3625 25.945 46.4375 25.9 46.4675 25.87C46.4975 25.84 46.5275 25.825 46.5575 25.825C46.5875 25.795 46.6025 25.78 46.6025 25.78C46.6625 25.78 46.7825 25.75 46.9625 25.69C47.1725 25.6 47.3675 25.525 47.5475 25.465C47.8175 25.405 48.1175 25.435 48.4475 25.555C48.8075 25.675 49.1225 25.855 49.3925 26.095C49.6625 26.305 49.7975 26.545 49.7975 26.815C49.7975 26.905 49.8275 26.995 49.8875 27.085C49.9775 27.145 50.0375 27.205 50.0675 27.265C50.2475 27.385 50.4125 27.67 50.5625 28.12C50.7125 28.57 50.7575 29.14 50.6975 29.83C50.6975 30.31 50.5925 30.97 50.3825 31.81C50.2025 32.62 50.0075 33.43 49.7975 34.24C49.5575 35.11 49.4225 35.83 49.3925 36.4C49.3925 36.94 49.4225 37.375 49.4825 37.705C49.5725 38.005 49.6475 38.26 49.7075 38.47C49.7375 38.71 49.6475 38.98 49.4375 39.28C49.2575 39.55 48.9425 39.685 48.4925 39.685Z" fill="black"/>
<path d="M21.1606 39.55C20.7706 39.55 20.4556 39.475 20.2156 39.325C20.0056 39.175 19.7356 38.965 19.4056 38.695C18.8356 38.095 18.4006 37.48 18.1006 36.85C17.8006 36.19 17.6956 35.605 17.7856 35.095C17.8756 34.855 17.9056 34.63 17.8756 34.42C17.8756 34.18 17.8756 34.06 17.8756 34.06C17.7256 33.91 17.6806 33.82 17.7406 33.79C17.8006 33.73 17.8606 33.64 17.9206 33.52C18.1006 33.52 18.1606 33.355 18.1006 33.025C18.0406 32.785 18.1456 32.275 18.4156 31.495C18.6856 30.685 19.0456 29.92 19.4956 29.2C19.6756 28.9 19.9456 28.51 20.3056 28.03C20.6656 27.52 21.0556 27.025 21.4756 26.545C21.9256 26.035 22.3306 25.63 22.6906 25.33C23.4406 24.7 24.1156 24.205 24.7156 23.845C25.3456 23.485 25.9906 23.23 26.6506 23.08C27.3106 22.93 27.9106 22.855 28.4506 22.855C29.0206 22.855 29.5306 23.095 29.9806 23.575C30.6706 23.875 31.1656 24.265 31.4656 24.745C31.7656 25.225 31.9606 25.87 32.0506 26.68C32.1406 27.58 32.0506 28.66 31.7806 29.92C31.5406 31.18 30.8206 32.665 29.6206 34.375C28.8706 35.455 28.1506 36.28 27.4606 36.85C26.7706 37.42 25.9906 37.96 25.1206 38.47C24.4906 38.89 23.8456 39.16 23.1856 39.28C22.5256 39.4 21.8506 39.49 21.1606 39.55ZM25.6606 34.33C26.3506 33.67 26.8606 32.995 27.1906 32.305C27.5206 31.585 27.8656 30.73 28.2256 29.74C28.3456 29.53 28.4206 29.2 28.4506 28.75C28.5106 28.3 28.5106 27.865 28.4506 27.445C28.4206 27.025 28.3156 26.785 28.1356 26.725C27.8356 26.515 27.5056 26.47 27.1456 26.59C26.8156 26.68 26.4106 26.905 25.9306 27.265C25.0306 28.015 24.2056 28.915 23.4556 29.965C22.7056 30.985 22.1206 32.215 21.7006 33.655C21.4906 34.525 21.5056 35.2 21.7456 35.68C22.0156 36.13 22.4806 36.265 23.1406 36.085C23.8306 35.905 24.6706 35.32 25.6606 34.33Z" fill="black"/>
<path d="M5.01999 40.225C4.14999 39.865 3.47499 39.475 2.99499 39.055C2.51499 38.605 2.27499 38.215 2.27499 37.885C2.30499 37.675 2.37999 37.51 2.49999 37.39C2.64999 37.24 2.96499 37.18 3.44499 37.21C3.95499 37.21 4.74999 37.315 5.82999 37.525C6.15999 37.525 6.51999 37.51 6.90999 37.48C7.32999 37.42 7.70499 37.36 8.03499 37.3C8.39499 37.21 8.63499 37.105 8.75499 36.985C8.90499 36.955 8.94999 36.895 8.88999 36.805C8.82999 36.685 8.72499 36.565 8.57499 36.445C8.45499 36.325 8.31999 36.235 8.16999 36.175C8.01999 36.115 7.88499 36.085 7.76499 36.085C7.73499 35.935 7.59999 35.785 7.35999 35.635C7.14999 35.455 6.89499 35.29 6.59499 35.14C5.93499 34.6 5.34999 34.12 4.83999 33.7C4.32999 33.25 4.13499 32.935 4.25499 32.755C4.25499 32.635 4.25499 32.575 4.25499 32.575C4.25499 32.545 4.25499 32.53 4.25499 32.53C4.04499 32.53 3.83499 32.245 3.62499 31.675C3.41499 31.075 3.30999 30.535 3.30999 30.055C3.30999 29.515 3.42999 28.96 3.66999 28.39C3.90999 27.79 4.22499 27.22 4.61499 26.68C5.00499 26.11 5.40999 25.615 5.82999 25.195C6.36999 24.685 6.98499 24.16 7.67499 23.62C8.39499 23.05 9.14499 22.555 9.92499 22.135C10.705 21.685 11.485 21.355 12.265 21.145C12.745 21.025 13.24 20.965 13.75 20.965C14.26 20.965 14.65 21.055 14.92 21.235C15.19 21.175 15.49 21.265 15.82 21.505C16.15 21.745 16.465 22.045 16.765 22.405C17.065 22.765 17.29 23.11 17.44 23.44C17.44 23.8 17.425 24.235 17.395 24.745C17.365 25.225 17.305 25.66 17.215 26.05C17.155 26.41 17.02 26.59 16.81 26.59C16.81 26.59 16.765 26.605 16.675 26.635C16.615 26.635 16.585 26.71 16.585 26.86C16.585 27.16 16.36 27.505 15.91 27.895C15.34 28.285 14.815 28.57 14.335 28.75C13.855 28.93 13.51 28.885 13.3 28.615C13.15 28.495 13.015 28.39 12.895 28.3C12.775 28.18 12.655 28.06 12.535 27.94C12.535 27.94 12.49 27.88 12.4 27.76C12.34 27.64 12.31 27.505 12.31 27.355C12.31 27.235 12.355 27.13 12.445 27.04C12.535 26.92 12.58 26.86 12.58 26.86C12.91 26.59 13.18 26.29 13.39 25.96C13.63 25.63 13.81 25.315 13.93 25.015C14.08 24.685 14.155 24.445 14.155 24.295C14.155 24.115 14.11 24.01 14.02 23.98C13.96 23.95 13.81 23.935 13.57 23.935C13.33 23.995 12.94 24.16 12.4 24.43C11.89 24.67 11.365 24.955 10.825 25.285C10.285 25.615 9.87999 25.9 9.60999 26.14C9.48999 26.35 9.39999 26.485 9.33999 26.545C9.30999 26.605 9.23499 26.635 9.11499 26.635C9.11499 26.515 9.02499 26.545 8.84499 26.725C8.69499 26.905 8.49999 27.145 8.25999 27.445C8.04999 27.745 7.82499 28.06 7.58499 28.39C7.37499 28.72 7.20999 28.975 7.08999 29.155C7.02999 29.365 6.95499 29.59 6.86499 29.83C6.77499 30.07 6.74499 30.31 6.77499 30.55C6.74499 30.88 6.83499 31.165 7.04499 31.405C7.28499 31.615 7.65999 31.93 8.16999 32.35C9.21999 33.13 10.015 33.76 10.555 34.24C11.125 34.69 11.53 35.065 11.77 35.365C12.01 35.635 12.16 35.905 12.22 36.175C12.73 37.105 12.82 37.885 12.49 38.515C12.16 39.115 11.59 39.595 10.78 39.955C10.48 40.105 9.96999 40.24 9.24999 40.36C8.52999 40.48 7.76499 40.525 6.95499 40.495C6.17499 40.495 5.52999 40.405 5.01999 40.225Z" fill="black"/>
</svg>
